# xmcd CD database file
#
# Track frame offsets:
#	150
#	23775
#	41175
#	71100
#	88575
#	100425
#	123375
#	142950
#
# Disc length: 2160 seconds
#
# Revision: 0
# Processed by: cddbd v1.4PL0 Copyright (c) Steve Scherf et al.
# Submitted via: CDex 1.50
#
DISCID=6f086e08
DTITLE=Gary Boyle - Electriglide
DYEAR=1989
DGENRE=Jazz
TTITLE0=Snap Crackle
TTITLE1=Electric Glide
TTITLE2=Gaz
TTITLE3=Hayabusa
TTITLE4=Grumble
TTITLE5=Morning Father Joys
TTITLE6=Brat No. 2
TTITLE7=It's Almost Light Again
EXTD=YEAR: 1989
EXTT0=
EXTT1=
EXTT2=
EXTT3=
EXTT4=
EXTT5=
EXTT6=
EXTT7=
PLAYORDER=
